# xmcd
#
# Track frame offsets: 
#        150
#        13868
#        32567
#        50373
#        67644
#        79433
#        93144
#        104406
#        120707
#        135498
#        145108
#        167380
#
# Disc length: 2414 seconds
#
# Revision: 0
# Processed by: cddbd v1.5.2PL0 Copyright (c) Steve Scherf et al.
# Submitted via: ExactAudioCopy v0.99pb5
#
DISCID=90096c0c
DTITLE=the FLYING BURRITO BROS - The Gilded Palace Of Sin Japanese SHM
DTITLE=CD
DYEAR=2009
DGENRE=Country
TTITLE0=Christine's Tune 
TTITLE1=Sin City
TTITLE2=Do Right Woman
TTITLE3=Dark End of the Street
TTITLE4=My Uncle
TTITLE5=Wheels
TTITLE6=Juanita
TTITLE7=Hot Burrito No. 1 
TTITLE8=Hot Burrito No. 2 
TTITLE9=Do You Know How It Feels 
TTITLE10=Hippie Boy 
TTITLE11=The Train Song
EXTD=
EXTT0=
EXTT1=
EXTT2=
EXTT3=
EXTT4=
EXTT5=
EXTT6=
EXTT7=
EXTT8=
EXTT9=
EXTT10=
EXTT11=
PLAYORDER=
